<svg width="260" height="31" viewBox="0 0 260 31" fill="none" xmlns="http://www.w3.org/2000/svg">
<path d="M63.72 30.352H61.352L58.632 23.088H49.864L47.176 30.352H45.48L51.912 12.912C52.04 12.5493 52.136 12.2293 52.2 11.952C52.264 11.6747 52.328 11.3653 52.392 11.024C52.392 10.512 52.2427 10.1067 51.944 9.808C51.6667 9.488 51.1867 9.328 50.504 9.328C50.3547 9.328 50.2373 9.296 50.152 9.232C50.088 9.14666 50.0453 9.05066 50.024 8.944C49.9813 8.816 50.0027 8.69867 50.088 8.592C50.1947 8.48533 50.312 8.432 50.44 8.432H55.4L63.72 30.352ZM58.152 21.648L54.216 10.992L50.376 21.648H58.152ZM67.5155 30.416V11.792C67.5155 11.2587 67.4515 10.7467 67.3235 10.256C67.2168 9.76533 66.9502 9.36 66.5235 9.04C66.4168 8.976 66.3102 8.92267 66.2035 8.88C66.0968 8.83733 65.9795 8.80533 65.8515 8.784C65.7448 8.76267 65.6275 8.74133 65.4995 8.72C65.3715 8.69867 65.2542 8.67733 65.1475 8.656C64.8275 8.63467 64.6675 8.48533 64.6675 8.208C64.6888 7.93067 64.8488 7.792 65.1475 7.792H68.2515C68.6355 7.792 68.9235 7.90933 69.1155 8.144C69.3075 8.37867 69.4035 8.64533 69.4035 8.944V30.416H67.5155ZM88.6995 22.768C88.6995 25.1147 88.0382 27.0027 86.7155 28.432C85.4142 29.84 83.6115 30.544 81.3075 30.544C79.1315 30.544 77.3502 29.8827 75.9635 28.56C74.5982 27.216 73.9155 25.296 73.9155 22.8C73.9155 21.7333 74.0648 20.72 74.3635 19.76C74.6622 18.8 75.1208 17.968 75.7395 17.264C76.3368 16.5387 77.0942 15.9627 78.0115 15.536C78.9288 15.1093 80.0062 14.896 81.2435 14.896C83.5475 14.896 85.3608 15.6213 86.6835 17.072C88.0275 18.5013 88.6995 20.4 88.6995 22.768ZM86.5235 22.768C86.5235 21.936 86.4275 21.136 86.2355 20.368C86.0435 19.5787 85.7342 18.8853 85.3075 18.288C84.8808 17.6693 84.3262 17.1787 83.6435 16.816C82.9822 16.4533 82.1715 16.272 81.2115 16.272C80.2728 16.272 79.4728 16.4533 78.8115 16.816C78.1502 17.1573 77.6168 17.616 77.2115 18.192C76.7848 18.7893 76.4755 19.4827 76.2835 20.272C76.1128 21.0613 76.0275 21.904 76.0275 22.8C76.0275 23.6533 76.1128 24.464 76.2835 25.232C76.4755 26 76.7742 26.672 77.1795 27.248C77.6062 27.824 78.1502 28.2827 78.8115 28.624C79.4728 28.9653 80.2942 29.136 81.2755 29.136C82.1928 29.136 82.9822 28.9653 83.6435 28.624C84.3048 28.2827 84.8488 27.8133 85.2755 27.216C85.7022 26.64 86.0115 25.968 86.2035 25.2C86.4168 24.432 86.5235 23.6213 86.5235 22.768ZM105.798 22.864H93.2535V21.456H105.798V22.864ZM105.798 22.032H103.942C103.963 20.9653 103.856 20.08 103.622 19.376C103.387 18.6507 103.067 18.0747 102.662 17.648C102.235 17.2213 101.734 16.9227 101.158 16.752C100.582 16.56 99.9628 16.464 99.3015 16.464C98.6402 16.464 97.9895 16.5707 97.3495 16.784C96.7308 16.9973 96.1868 17.3387 95.7175 17.808C95.2268 18.2773 94.8322 18.896 94.5335 19.664C94.2562 20.432 94.1175 21.3707 94.1175 22.48C94.1175 24.4 94.6188 25.968 95.6215 27.184C96.6455 28.3787 98.1388 29.04 100.102 29.168C100.23 29.1893 100.486 29.2 100.87 29.2C101.254 29.1787 101.68 29.136 102.15 29.072C102.64 29.008 103.142 28.912 103.654 28.784C104.166 28.6347 104.614 28.432 104.998 28.176C105.275 28.112 105.456 28.2507 105.542 28.592C105.648 28.912 105.584 29.136 105.35 29.264C104.795 29.6907 103.995 30.032 102.95 30.288C101.926 30.544 100.816 30.64 99.6215 30.576C98.5548 30.5547 97.5522 30.352 96.6135 29.968C95.6962 29.584 94.9068 29.0507 94.2455 28.368C93.5628 27.6853 93.0295 26.8533 92.6455 25.872C92.2615 24.8693 92.0695 23.7387 92.0695 22.48C92.0695 21.264 92.2615 20.1973 92.6455 19.28C93.0295 18.3627 93.5628 17.584 94.2455 16.944C94.9068 16.3253 95.6962 15.856 96.6135 15.536C97.5522 15.216 98.5548 15.056 99.6215 15.056C100.411 15.056 101.19 15.1947 101.958 15.472C102.726 15.7493 103.398 16.176 103.974 16.752C104.55 17.328 105.008 18.0533 105.35 18.928C105.691 19.8027 105.84 20.8373 105.798 22.032ZM131.477 30.192H129.557V28.048C129.386 28.24 129.215 28.4213 129.045 28.592C128.874 28.7413 128.725 28.88 128.597 29.008C127.871 29.712 127.039 30.1493 126.101 30.32C125.183 30.4907 124.277 30.5653 123.381 30.544C122.207 30.5653 121.301 30.1707 120.661 29.36C120.021 28.528 119.701 27.568 119.701 26.48C119.701 25.5413 119.946 24.752 120.437 24.112C120.949 23.4507 121.589 22.9173 122.357 22.512C123.125 22.1067 123.957 21.8187 124.853 21.648C125.749 21.456 126.602 21.3493 127.413 21.328C127.541 21.328 127.69 21.328 127.861 21.328C128.053 21.328 128.245 21.328 128.437 21.328C128.629 21.328 128.821 21.328 129.013 21.328C129.205 21.3067 129.386 21.296 129.557 21.296V20.208C129.557 19.7173 129.493 19.248 129.365 18.8C129.258 18.3307 129.066 17.9147 128.789 17.552C128.49 17.1893 128.085 16.9013 127.573 16.688C127.082 16.4533 126.453 16.336 125.685 16.336C124.597 16.336 123.733 16.5707 123.093 17.04C122.453 17.488 122.101 18.1173 122.036 18.928H119.893C119.914 18.5227 120.042 18.0853 120.277 17.616C120.533 17.1467 120.895 16.72 121.365 16.336C121.834 15.952 122.431 15.632 123.157 15.376C123.882 15.12 124.746 14.992 125.749 14.992C127.562 14.992 128.97 15.4613 129.973 16.4C130.975 17.3173 131.477 18.5653 131.477 20.144V30.192ZM129.557 24.912V22.608C129.258 22.608 128.831 22.608 128.277 22.608C127.722 22.608 127.125 22.64 126.485 22.704C125.845 22.768 125.205 22.896 124.565 23.088C123.946 23.2587 123.413 23.5253 122.965 23.888C122.709 24.1013 122.453 24.4213 122.197 24.848C121.941 25.2747 121.812 25.712 121.812 26.16C121.812 26.416 121.834 26.7147 121.877 27.056C121.941 27.376 122.069 27.6853 122.261 27.984C122.453 28.304 122.719 28.5813 123.061 28.816C123.423 29.0293 123.914 29.1467 124.533 29.168C124.895 29.168 125.311 29.1147 125.781 29.008C126.25 28.9013 126.709 28.7307 127.157 28.496C127.605 28.2827 128.021 27.9947 128.405 27.632C128.81 27.248 129.119 26.8 129.333 26.288C129.418 26.0747 129.471 25.8613 129.493 25.648C129.535 25.4133 129.557 25.168 129.557 24.912ZM149.485 22.864H136.941V21.456H149.485V22.864ZM149.485 22.032H147.629C147.65 20.9653 147.544 20.08 147.309 19.376C147.074 18.6507 146.754 18.0747 146.349 17.648C145.922 17.2213 145.421 16.9227 144.845 16.752C144.269 16.56 143.65 16.464 142.989 16.464C142.328 16.464 141.677 16.5707 141.037 16.784C140.418 16.9973 139.874 17.3387 139.405 17.808C138.914 18.2773 138.52 18.896 138.221 19.664C137.944 20.432 137.805 21.3707 137.805 22.48C137.805 24.4 138.306 25.968 139.309 27.184C140.333 28.3787 141.826 29.04 143.789 29.168C143.917 29.1893 144.173 29.2 144.557 29.2C144.941 29.1787 145.368 29.136 145.837 29.072C146.328 29.008 146.829 28.912 147.341 28.784C147.853 28.6347 148.301 28.432 148.685 28.176C148.962 28.112 149.144 28.2507 149.229 28.592C149.336 28.912 149.272 29.136 149.037 29.264C148.482 29.6907 147.682 30.032 146.637 30.288C145.613 30.544 144.504 30.64 143.309 30.576C142.242 30.5547 141.24 30.352 140.301 29.968C139.384 29.584 138.594 29.0507 137.933 28.368C137.25 27.6853 136.717 26.8533 136.333 25.872C135.949 24.8693 135.757 23.7387 135.757 22.48C135.757 21.264 135.949 20.1973 136.333 19.28C136.717 18.3627 137.25 17.584 137.933 16.944C138.594 16.3253 139.384 15.856 140.301 15.536C141.24 15.216 142.242 15.056 143.309 15.056C144.098 15.056 144.877 15.1947 145.645 15.472C146.413 15.7493 147.085 16.176 147.661 16.752C148.237 17.328 148.696 18.0533 149.037 18.928C149.378 19.8027 149.528 20.8373 149.485 22.032ZM162.586 26.32C162.586 27.408 162.298 28.2827 161.722 28.944C161.167 29.584 160.324 30.0427 159.194 30.32C158.66 30.4907 158.074 30.5867 157.434 30.608C156.815 30.6507 156.207 30.6507 155.61 30.608C155.012 30.5653 154.458 30.4907 153.946 30.384C153.434 30.2773 153.039 30.1707 152.762 30.064C152.548 29.9787 152.388 29.8507 152.282 29.68C152.196 29.488 152.164 29.296 152.186 29.104C152.207 28.9333 152.282 28.784 152.41 28.656C152.559 28.5067 152.762 28.432 153.018 28.432C153.466 28.6667 153.988 28.88 154.586 29.072C155.183 29.264 155.866 29.36 156.634 29.36C157.146 29.36 157.636 29.328 158.106 29.264C158.596 29.2 159.023 29.072 159.385 28.88C159.748 28.6667 160.036 28.3893 160.25 28.048C160.484 27.6853 160.602 27.216 160.602 26.64C160.602 26.064 160.42 25.5733 160.058 25.168C159.695 24.7413 159.194 24.336 158.554 23.952C158.127 23.7387 157.658 23.5253 157.146 23.312C156.655 23.0987 156.154 22.8747 155.641 22.64C155.151 22.4053 154.671 22.1387 154.202 21.84C153.754 21.5413 153.359 21.1787 153.018 20.752C152.698 20.368 152.516 19.8667 152.474 19.248C152.431 18.6293 152.527 18.032 152.762 17.456C153.039 16.816 153.423 16.3147 153.914 15.952C154.426 15.568 155.023 15.2907 155.706 15.12C156.367 14.9707 157.082 14.9173 157.85 14.96C158.639 14.9813 159.45 15.0773 160.282 15.248C160.41 15.2907 160.527 15.3227 160.634 15.344C160.74 15.3653 160.847 15.3867 160.954 15.408C161.06 15.4507 161.156 15.4827 161.242 15.504C161.348 15.5253 161.444 15.536 161.53 15.536V17.296C161.274 17.168 160.954 17.0293 160.57 16.88C160.207 16.7093 159.738 16.5387 159.161 16.368C158.735 16.2827 158.244 16.2293 157.69 16.208C157.156 16.1653 156.644 16.1973 156.154 16.304C155.663 16.4107 155.236 16.6133 154.874 16.912C154.532 17.2107 154.351 17.6373 154.33 18.192C154.308 18.512 154.34 18.8107 154.426 19.088C154.532 19.3653 154.703 19.6213 154.938 19.856C155.514 20.4107 156.1 20.8373 156.698 21.136C157.295 21.4133 157.892 21.6693 158.49 21.904C159.087 22.16 159.684 22.4587 160.282 22.8C160.879 23.1413 161.466 23.6427 162.042 24.304C162.212 24.5173 162.34 24.816 162.426 25.2C162.532 25.5627 162.586 25.936 162.586 26.32ZM173.919 30.48C173.599 30.544 173.204 30.5867 172.735 30.608C172.265 30.6293 171.903 30.64 171.647 30.64C170.687 30.64 169.919 30.544 169.343 30.352C168.767 30.1813 168.329 29.9147 168.031 29.552C167.732 29.168 167.529 28.7093 167.423 28.176C167.337 27.6213 167.295 26.9813 167.295 26.256V16.912H164.767V15.504H167.295V12.528L169.183 10.8V15.504H173.599V16.912H169.215V26.608C169.215 27.184 169.289 27.6533 169.439 28.016C169.588 28.3573 169.823 28.6133 170.143 28.784C170.484 28.9973 171.007 29.1573 171.711 29.264C172.415 29.3493 173.151 29.328 173.919 29.2V30.48ZM180.37 8.944V19.248H180.466C180.957 18.032 181.65 17.0507 182.546 16.304C183.442 15.536 184.701 15.152 186.322 15.152C187.069 15.152 187.719 15.312 188.274 15.632C188.85 15.9307 189.33 16.336 189.714 16.848C190.098 17.3813 190.386 17.9893 190.578 18.672C190.77 19.3547 190.866 20.0693 190.866 20.816V30.32H189.042V20.72C189.042 20.2507 188.989 19.7813 188.882 19.312C188.775 18.8213 188.594 18.3947 188.338 18.032C188.082 17.6693 187.741 17.3707 187.314 17.136C186.887 16.9013 186.365 16.784 185.746 16.784C184.893 16.784 184.018 17.0827 183.122 17.68C182.226 18.2773 181.469 19.3227 180.85 20.816C180.658 21.2427 180.53 21.6907 180.466 22.16C180.402 22.6293 180.37 23.056 180.37 23.44V30.32H178.482V11.76C178.482 11.2267 178.418 10.7253 178.29 10.256C178.183 9.76533 177.917 9.36 177.49 9.04C177.383 8.976 177.266 8.92267 177.138 8.88C177.031 8.83733 176.925 8.80533 176.818 8.784C176.69 8.76267 176.562 8.752 176.434 8.752C176.306 8.73067 176.189 8.70933 176.082 8.688C175.762 8.66667 175.613 8.51733 175.634 8.24C175.655 7.94133 175.815 7.792 176.114 7.792H179.218C179.602 7.792 179.89 7.90933 180.082 8.144C180.274 8.37867 180.37 8.64533 180.37 8.944ZM208.86 22.864H196.316V21.456H208.86V22.864ZM208.86 22.032H207.004C207.025 20.9653 206.919 20.08 206.684 19.376C206.449 18.6507 206.129 18.0747 205.724 17.648C205.297 17.2213 204.796 16.9227 204.22 16.752C203.644 16.56 203.025 16.464 202.364 16.464C201.703 16.464 201.052 16.5707 200.412 16.784C199.793 16.9973 199.249 17.3387 198.78 17.808C198.289 18.2773 197.895 18.896 197.596 19.664C197.319 20.432 197.18 21.3707 197.18 22.48C197.18 24.4 197.681 25.968 198.684 27.184C199.708 28.3787 201.201 29.04 203.164 29.168C203.292 29.1893 203.548 29.2 203.932 29.2C204.316 29.1787 204.743 29.136 205.212 29.072C205.703 29.008 206.204 28.912 206.716 28.784C207.228 28.6347 207.676 28.432 208.06 28.176C208.337 28.112 208.519 28.2507 208.604 28.592C208.711 28.912 208.647 29.136 208.412 29.264C207.857 29.6907 207.057 30.032 206.012 30.288C204.988 30.544 203.879 30.64 202.684 30.576C201.617 30.5547 200.615 30.352 199.676 29.968C198.759 29.584 197.969 29.0507 197.308 28.368C196.625 27.6853 196.092 26.8533 195.708 25.872C195.324 24.8693 195.132 23.7387 195.132 22.48C195.132 21.264 195.324 20.1973 195.708 19.28C196.092 18.3627 196.625 17.584 197.308 16.944C197.969 16.3253 198.759 15.856 199.676 15.536C200.615 15.216 201.617 15.056 202.684 15.056C203.473 15.056 204.252 15.1947 205.02 15.472C205.788 15.7493 206.46 16.176 207.036 16.752C207.612 17.328 208.071 18.0533 208.412 18.928C208.753 19.8027 208.903 20.8373 208.86 22.032ZM220.169 30.48C219.849 30.544 219.454 30.5867 218.985 30.608C218.515 30.6293 218.153 30.64 217.897 30.64C216.937 30.64 216.169 30.544 215.593 30.352C215.017 30.1813 214.579 29.9147 214.281 29.552C213.982 29.168 213.779 28.7093 213.673 28.176C213.587 27.6213 213.545 26.9813 213.545 26.256V16.912H211.017V15.504H213.545V12.528L215.433 10.8V15.504H219.849V16.912H215.465V26.608C215.465 27.184 215.539 27.6533 215.689 28.016C215.838 28.3573 216.073 28.6133 216.393 28.784C216.734 28.9973 217.257 29.1573 217.961 29.264C218.665 29.3493 219.401 29.328 220.169 29.2V30.48ZM227.196 9.968C227.196 10.3733 227.047 10.736 226.748 11.056C226.471 11.376 226.097 11.536 225.628 11.536C225.18 11.536 224.796 11.3867 224.476 11.088C224.156 10.7893 223.996 10.416 223.996 9.968C223.996 9.52 224.156 9.14667 224.476 8.848C224.796 8.528 225.18 8.368 225.628 8.368C226.033 8.368 226.385 8.51733 226.684 8.816C226.983 9.11467 227.153 9.49867 227.196 9.968ZM224.828 30.384V19.44C224.828 18.9067 224.775 18.4053 224.668 17.936C224.561 17.4453 224.295 17.04 223.868 16.72C223.761 16.656 223.655 16.6027 223.548 16.56C223.441 16.5173 223.335 16.4853 223.228 16.464C223.1 16.4427 222.972 16.4213 222.844 16.4C222.737 16.3787 222.631 16.3573 222.524 16.336C222.204 16.3147 222.044 16.1653 222.044 15.888C222.065 15.6107 222.225 15.472 222.524 15.472H225.532C225.916 15.472 226.204 15.5893 226.396 15.824C226.588 16.0587 226.684 16.3253 226.684 16.624V30.384H224.828ZM244.668 18.832H242.396C242.332 18.128 241.959 17.552 241.276 17.104C240.615 16.656 239.665 16.432 238.428 16.432C237.767 16.432 237.116 16.5493 236.476 16.784C235.857 16.9973 235.303 17.3493 234.812 17.84C234.321 18.3307 233.927 18.96 233.628 19.728C233.351 20.496 233.212 21.424 233.212 22.512C233.212 24.3253 233.713 25.8613 234.716 27.12C235.74 28.3573 237.233 29.04 239.196 29.168C239.324 29.1893 239.569 29.1893 239.932 29.168C240.316 29.1467 240.753 29.104 241.244 29.04C241.713 28.9547 242.204 28.848 242.716 28.72C243.228 28.5707 243.676 28.368 244.06 28.112C244.188 28.0907 244.305 28.1227 244.412 28.208C244.519 28.2933 244.593 28.4107 244.636 28.56C244.7 28.688 244.711 28.8267 244.668 28.976C244.647 29.104 244.583 29.2 244.476 29.264C243.921 29.6907 243.111 30.032 242.044 30.288C240.999 30.544 239.879 30.64 238.684 30.576C237.617 30.5547 236.615 30.3627 235.676 30C234.759 29.616 233.969 29.072 233.308 28.368C232.625 27.6853 232.092 26.8533 231.708 25.872C231.324 24.8907 231.132 23.7707 231.132 22.512C231.132 21.296 231.324 20.2293 231.708 19.312C232.092 18.3733 232.625 17.5947 233.308 16.976C233.969 16.3573 234.759 15.888 235.676 15.568C236.615 15.2267 237.617 15.056 238.684 15.056C240.284 15.056 241.617 15.4293 242.684 16.176C243.772 16.9013 244.433 17.7867 244.668 18.832ZM257.773 26.32C257.773 27.408 257.485 28.2827 256.909 28.944C256.354 29.584 255.512 30.0427 254.381 30.32C253.848 30.4907 253.261 30.5867 252.621 30.608C252.002 30.6507 251.394 30.6507 250.797 30.608C250.2 30.5653 249.645 30.4907 249.133 30.384C248.621 30.2773 248.226 30.1707 247.949 30.064C247.736 29.9787 247.576 29.8507 247.469 29.68C247.384 29.488 247.352 29.296 247.373 29.104C247.394 28.9333 247.469 28.784 247.597 28.656C247.746 28.5067 247.949 28.432 248.205 28.432C248.653 28.6667 249.176 28.88 249.773 29.072C250.37 29.264 251.053 29.36 251.821 29.36C252.333 29.36 252.824 29.328 253.293 29.264C253.784 29.2 254.21 29.072 254.573 28.88C254.936 28.6667 255.224 28.3893 255.437 28.048C255.672 27.6853 255.789 27.216 255.789 26.64C255.789 26.064 255.608 25.5733 255.245 25.168C254.882 24.7413 254.381 24.336 253.741 23.952C253.314 23.7387 252.845 23.5253 252.333 23.312C251.842 23.0987 251.341 22.8747 250.829 22.64C250.338 22.4053 249.858 22.1387 249.389 21.84C248.941 21.5413 248.546 21.1787 248.205 20.752C247.885 20.368 247.704 19.8667 247.661 19.248C247.618 18.6293 247.714 18.032 247.949 17.456C248.226 16.816 248.61 16.3147 249.101 15.952C249.613 15.568 250.21 15.2907 250.893 15.12C251.554 14.9707 252.269 14.9173 253.037 14.96C253.826 14.9813 254.637 15.0773 255.469 15.248C255.597 15.2907 255.714 15.3227 255.821 15.344C255.928 15.3653 256.034 15.3867 256.141 15.408C256.248 15.4507 256.344 15.4827 256.429 15.504C256.536 15.5253 256.632 15.536 256.717 15.536V17.296C256.461 17.168 256.141 17.0293 255.757 16.88C255.394 16.7093 254.925 16.5387 254.349 16.368C253.922 16.2827 253.432 16.2293 252.877 16.208C252.344 16.1653 251.832 16.1973 251.341 16.304C250.85 16.4107 250.424 16.6133 250.061 16.912C249.72 17.2107 249.538 17.6373 249.517 18.192C249.496 18.512 249.528 18.8107 249.613 19.088C249.72 19.3653 249.89 19.6213 250.125 19.856C250.701 20.4107 251.288 20.8373 251.885 21.136C252.482 21.4133 253.08 21.6693 253.677 21.904C254.274 22.16 254.872 22.4587 255.469 22.8C256.066 23.1413 256.653 23.6427 257.229 24.304C257.4 24.5173 257.528 24.816 257.613 25.2C257.72 25.5627 257.773 25.936 257.773 26.32Z" fill="white"/>
<g clip-path="url(#clip0_344_5)">
<path d="M35.589 15.8528C33.4011 16.4102 31.3368 17.1308 29.4096 18.0072C30.9069 14.9357 31.5605 11.7417 31.3526 8.48943L31.2429 6.77262L29.4376 7.93203C27.0984 9.43448 25.0585 11.1334 23.3478 13.0011C22.7171 10.8932 21.7414 8.84213 20.4246 6.86439L19.3882 5.30774L18.3519 6.86439C17.0352 8.84213 16.0595 10.8932 15.4286 13.0011C13.7179 11.1334 11.6781 9.43448 9.33879 7.93203L7.53357 6.77257L7.4238 8.48938C7.21586 11.7417 7.86943 14.9357 9.36679 18.0072C7.43959 17.1307 5.37524 16.4102 3.1874 15.8528L0.888184 15.267L1.72176 16.8827C3.25902 19.8623 5.66617 22.5169 8.87654 24.7728C11.4536 26.5837 14.4253 28.0422 17.7092 29.1077L17.9375 29.1818H20.8389L21.0671 29.1077C24.3511 28.0422 27.3229 26.5837 29.8998 24.7728C33.1101 22.5169 35.5174 19.8623 37.0546 16.8827L37.8882 15.267L35.589 15.8528ZM29.0846 10.4354C28.9529 13.3541 28.0726 16.2107 26.4571 18.9513C26.2763 19.258 26.0827 19.5662 25.8706 19.8871C25.3544 20.205 24.851 20.536 24.3609 20.8804C24.2683 20.9455 24.177 21.0112 24.0857 21.077C24.167 20.3408 24.2082 19.6015 24.2082 18.8635C24.2082 17.7217 24.113 16.5915 23.9248 15.475C25.3391 13.6366 27.0676 11.9481 29.0846 10.4354ZM12.3193 18.9513C10.7038 16.2107 9.82347 13.3541 9.69182 10.4354C11.7085 11.948 13.4373 13.6367 14.8516 15.4749C14.6633 16.5915 14.5681 17.7217 14.5681 18.8634C14.5681 19.6014 14.6094 20.3407 14.6907 21.0769C14.5994 21.0112 14.5082 20.9455 14.4156 20.8804C13.9255 20.536 13.422 20.2049 12.9058 19.887C12.6951 19.5682 12.4976 19.2538 12.3193 18.9513ZM10.4947 23.6357C8.17409 22.005 6.30722 20.1499 4.92321 18.1025C7.83662 19.075 10.477 20.3869 12.7975 22.0175C15.1113 23.6436 16.9793 25.4996 18.3658 27.5481C15.4476 26.5717 12.8008 25.2563 10.4947 23.6357ZM17.377 23.2887C17.032 21.8339 16.8566 20.3462 16.8566 18.8635C16.8566 15.5355 17.707 12.3111 19.3882 9.25299C21.0694 12.3111 21.9198 15.5355 21.9198 18.8635C21.9198 20.3471 21.7443 21.8355 21.3989 23.2909C20.6674 23.9829 19.9963 24.704 19.3891 25.4522C18.7817 24.7033 18.1101 23.9817 17.377 23.2887ZM28.2818 23.6357C26.0778 25.1844 23.5628 26.4545 20.7969 27.4163C20.7506 27.3423 20.7037 27.2689 20.6562 27.1955C22.0179 25.2844 23.8066 23.544 25.9789 22.0175C28.2994 20.3869 30.9397 19.0749 33.8532 18.1024C32.4692 20.15 30.6024 22.0051 28.2818 23.6357Z" fill="white"/>
</g>
<defs>
<clipPath id="clip0_344_5">
<rect width="37" height="26" fill="white" transform="translate(0.888184 4.24475)"/>
</clipPath>
</defs>
</svg>
