<svg width="34" height="26" viewBox="0 0 34 26" fill="none" xmlns="http://www.w3.org/2000/svg">
<path d="M31.8872 11.6081C29.8768 12.1655 27.9798 12.886 26.2089 13.7625C27.5848 10.691 28.1854 7.49691 27.9944 4.24468L27.8935 2.52787L26.2346 3.68728C24.0851 5.18973 22.2106 6.88869 20.6386 8.75639C20.059 6.64845 19.1624 4.59738 17.9524 2.61964L17 1.06299L16.0477 2.61964C14.8378 4.59738 13.9412 6.64845 13.3615 8.75639C11.7895 6.88864 9.91502 5.18973 7.76543 3.68728L6.10657 2.52782L6.0057 4.24463C5.81463 7.49691 6.4152 10.6909 7.79115 13.7624C6.02021 12.886 4.12324 12.1654 2.11279 11.608L0 11.0223L0.765993 12.638C2.17861 15.6176 4.39058 18.2721 7.34065 20.528C9.7088 22.339 12.4395 23.7975 15.4572 24.863L15.6669 24.937H18.3331L18.5428 24.863C21.5605 23.7974 24.2913 22.3389 26.6593 20.528C29.6093 18.2721 31.8215 15.6175 33.234 12.6379L34 11.0222L31.8872 11.6081ZM25.9102 6.19069C25.7892 9.10931 24.9802 11.9659 23.4958 14.7066C23.3296 15.0133 23.1517 15.3214 22.9568 15.6423C22.4825 15.9603 22.0199 16.2913 21.5695 16.6357C21.4844 16.7008 21.4005 16.7665 21.3166 16.8323C21.3913 16.096 21.4292 15.3567 21.4292 14.6187C21.4292 13.477 21.3418 12.3468 21.1688 11.2302C22.4684 9.39189 24.0567 7.70339 25.9102 6.19069ZM10.5042 14.7065C9.01977 11.9659 8.21081 9.10936 8.08982 6.19069C9.94299 7.70322 11.5316 9.39195 12.8312 11.2302C12.6582 12.3467 12.5708 13.4769 12.5708 14.6187C12.5708 15.3567 12.6087 16.0959 12.6834 16.8322C12.5995 16.7664 12.5157 16.7007 12.4306 16.6356C11.9802 16.2912 11.5175 15.9602 11.0433 15.6423C10.8496 15.3234 10.6681 15.0091 10.5042 14.7065ZM8.82757 19.391C6.69515 17.7603 4.97966 15.9051 3.70786 13.8577C6.38505 14.8302 8.81138 16.1422 10.9437 17.7728C13.0699 19.3988 14.7864 21.2549 16.0606 23.3034C13.379 22.327 10.9467 21.0115 8.82757 19.391ZM15.1519 19.044C14.8348 17.5892 14.6737 16.1015 14.6737 14.6188C14.6737 11.2907 15.4552 8.06632 17 5.00824C18.5449 8.06638 19.3263 11.2908 19.3263 14.6188C19.3263 16.1023 19.165 17.5907 18.8477 19.0461C18.1755 19.7381 17.5588 20.4592 17.0008 21.2074C16.4427 20.4585 15.8255 19.7369 15.1519 19.044ZM25.1725 19.391C23.1473 20.9397 20.8361 22.2097 18.2945 23.1715C18.2519 23.0976 18.2089 23.0242 18.1652 22.9507C19.4165 21.0397 21.0602 19.2993 23.0563 17.7727C25.1887 16.1422 27.6149 14.8302 30.2921 13.8577C29.0204 15.9052 27.3049 17.7603 25.1725 19.391Z" fill="white"/>
</svg>
