<svg width="61" height="61" viewBox="0 0 61 61" fill="none" xmlns="http://www.w3.org/2000/svg">
<circle cx="30.5" cy="30.5" r="30.5" fill="#ECFDF5"/>
<path d="M27.9663 16.4671L25.7826 20.0094C25.5577 20.3332 25.2171 20.5585 24.8309 20.6391C24.4447 20.7196 24.0422 20.6493 23.7063 20.4425C23.3705 20.2357 23.1267 19.9082 23.0253 19.5274C22.9239 19.1466 22.9724 18.7415 23.161 18.3954L25.3447 14.8531C25.8923 13.9799 26.653 13.2599 27.5556 12.7609C28.4582 12.2618 29.4729 12 30.5046 12C31.5363 12 32.5511 12.2618 33.4536 12.7609C34.3562 13.2599 35.117 13.9799 35.6646 14.8531L42.1415 25.3782L42.8216 21.7359C42.8964 21.3341 43.128 20.9786 43.4654 20.7474C43.8027 20.5161 44.2182 20.4283 44.6205 20.503C45.0227 20.5777 45.3788 20.809 45.6103 21.1459C45.8418 21.4829 45.9298 21.8978 45.8549 22.2995L45.0839 26.4116C44.8866 27.4702 44.3253 28.4267 43.4969 29.116C42.6685 29.8052 41.6251 30.1838 40.5469 30.1864C40.2462 30.1864 35.5859 29.2993 35.5859 29.2993C35.1914 29.2137 34.8463 28.977 34.6246 28.64C34.4029 28.303 34.3224 27.8927 34.4003 27.4971C34.4783 27.1014 34.7084 26.7521 35.0414 26.5241C35.3744 26.2961 35.7836 26.2076 36.1812 26.2776L39.4705 26.926L33.0337 16.4671C32.7661 16.0367 32.393 15.6816 31.9496 15.4353C31.5062 15.1891 31.0073 15.0599 30.5 15.0599C29.9927 15.0599 29.4938 15.1891 29.0504 15.4353C28.607 15.6816 28.2339 16.0367 27.9663 16.4671ZM48.0941 35.0393L46.6013 32.6183C46.5012 32.4345 46.3646 32.273 46.1998 32.1436C46.0351 32.0143 45.8457 31.9199 45.6432 31.8661C45.4407 31.8123 45.2294 31.8002 45.0221 31.8307C44.8148 31.8612 44.6159 31.9336 44.4375 32.0434C44.2591 32.1532 44.105 32.2982 43.9846 32.4694C43.8642 32.6407 43.7801 32.8347 43.7372 33.0395C43.6944 33.2444 43.6938 33.4558 43.7355 33.6609C43.7772 33.8659 43.8603 34.0604 43.9797 34.2323L45.4725 36.6534C45.7572 37.1088 45.9135 37.6326 45.9246 38.1694C45.9357 38.7062 45.8014 39.236 45.5357 39.7028C45.2802 40.1683 44.9034 40.5562 44.4451 40.8251C43.9868 41.0941 43.4642 41.2342 42.9326 41.2306H31.5425L33.5025 39.2762C33.7839 38.9861 33.9399 38.5973 33.9369 38.1935C33.934 37.7896 33.7724 37.4031 33.4869 37.1171C33.2013 36.8312 32.8148 36.6687 32.4104 36.6646C32.0061 36.6605 31.6163 36.8152 31.325 37.0954L28.7158 39.6905C27.9014 40.4991 27.435 41.5931 27.4157 42.7399C27.4157 42.7399 27.4157 42.7553 27.4157 42.7614C27.4157 42.7676 27.4157 42.7815 27.4157 42.7922C27.4114 43.3849 27.5257 43.9724 27.7522 44.5201C27.9786 45.0679 28.3125 45.5649 28.7343 45.9818L31.3281 48.5261C31.471 48.6749 31.6424 48.7935 31.8321 48.8749C32.0218 48.9563 32.2259 48.9988 32.4323 49C32.6388 49.0011 32.8433 48.9609 33.0339 48.8816C33.2245 48.8023 33.3972 48.6856 33.5418 48.5385C33.6863 48.3913 33.7999 48.2166 33.8756 48.0248C33.9513 47.833 33.9877 47.628 33.9826 47.4218C33.9775 47.2157 33.931 47.0127 33.8459 46.8249C33.7608 46.6371 33.6388 46.4682 33.4871 46.3283L31.4392 44.3108H42.9326C44.0145 44.3071 45.0758 44.0155 46.0074 43.4662C46.939 42.9168 47.7072 42.1294 48.2329 41.1851C48.7586 40.2408 49.0228 39.1736 48.9985 38.0934C48.9741 37.0132 48.6619 35.959 48.0941 35.0393ZM22.4501 23.0773C21.9447 22.7336 21.3758 22.4939 20.7766 22.3723C20.1774 22.2506 19.5599 22.2495 18.9603 22.3688L14.906 23.1666C14.7041 23.2022 14.5112 23.2776 14.3388 23.3885C14.1664 23.4994 14.0179 23.6435 13.9019 23.8124C13.7859 23.9814 13.7049 24.1717 13.6634 24.3723C13.622 24.5729 13.6211 24.7797 13.6607 24.9806C13.7002 25.1816 13.7796 25.3726 13.894 25.5426C14.0084 25.7126 14.1556 25.8581 14.327 25.9705C14.4984 26.083 14.6906 26.1602 14.8922 26.1976C15.0938 26.235 15.3009 26.2318 15.5013 26.1883L18.7521 25.5492L12.9059 35.0393C12.3382 35.9589 12.026 37.013 12.0016 38.093C11.9771 39.1731 12.2412 40.2401 12.7668 41.1844C13.2923 42.1287 14.0602 42.9161 14.9916 43.4656C15.923 44.0151 16.9841 44.3068 18.0658 44.3108H22.9127C23.3217 44.3108 23.714 44.1485 24.0032 43.8597C24.2924 43.5709 24.4549 43.1791 24.4549 42.7707C24.4549 42.3622 24.2924 41.9705 24.0032 41.6817C23.714 41.3928 23.3217 41.2306 22.9127 41.2306H18.0658C17.5353 41.2331 17.014 41.0925 16.5569 40.8235C16.0998 40.5546 15.7239 40.1674 15.4689 39.7028C15.2033 39.236 15.0689 38.7062 15.08 38.1694C15.0912 37.6326 15.2474 37.1088 15.5321 36.6534L21.4508 27.0462L22.1386 30.7332C22.2139 31.1349 22.4458 31.4903 22.7835 31.7212C23.1211 31.9522 23.5368 32.0397 23.939 31.9645C24.3413 31.8893 24.6972 31.6577 24.9284 31.3205C25.1596 30.9833 25.2472 30.5681 25.172 30.1664L24.4009 26.0543C24.2901 25.4535 24.0605 24.8809 23.7256 24.3697C23.3906 23.8585 22.957 23.4192 22.4501 23.0773Z" fill="#065F46"/>
</svg>
