<svg width="61" height="61" viewBox="0 0 61 61" fill="none" xmlns="http://www.w3.org/2000/svg">
<circle cx="30.5" cy="30.5" r="30.5" fill="#ECFDF5"/>
<path d="M55.619 31.0281C55.5501 30.8917 53.9005 27.6536 51.125 24.5434C49.4731 22.6924 47.7629 21.274 46.0422 20.3275C43.8253 19.1083 41.5873 18.6689 39.3894 19.0219C37.6969 19.2936 36.2117 20.2084 35.2071 21.5973C34.5106 22.5603 34.1036 23.6713 34.0098 24.8262C32.707 25.1862 31.5628 25.6977 30.6452 26.3376C30.049 26.7532 29.5682 27.215 29.2113 27.7048C28.5715 27.0882 27.6618 26.5722 26.5762 26.2306C26.3283 24.3024 24.8399 22.681 22.8253 22.3574C16.5265 21.3456 12.0735 30.0072 11.887 30.3764C11.7332 30.6807 11.7703 31.0469 11.9822 31.3142C12.1504 31.5265 12.4044 31.6457 12.6679 31.6457C12.7362 31.6457 12.8052 31.6377 12.8735 31.6212C12.9169 31.6108 17.2532 30.582 21.3977 31.2473C22.5852 31.4382 23.7755 31.1549 24.7498 30.4503C25.5798 29.85 26.1671 29.0046 26.4411 28.0336C27.7631 28.5384 28.4758 29.3056 28.4758 29.7936L28.4683 36.9728C28.4678 37.456 28.8591 37.8482 29.3423 37.8487C29.3426 37.8487 29.3429 37.8487 29.3432 37.8487C29.826 37.8487 30.2176 37.4575 30.2181 36.9748L30.2256 29.7946C30.2256 28.7314 31.5766 27.397 34.1153 26.616C34.4321 28.2084 35.3233 29.6016 36.646 30.5583C38.0348 31.5628 39.7319 31.9668 41.4244 31.6946C47.8362 30.6651 54.5654 32.2571 54.6324 32.273C54.7006 32.2895 54.7695 32.2975 54.838 32.2975C55.1015 32.2975 55.3555 32.1783 55.5236 31.966C55.7356 31.6986 55.7728 31.3326 55.619 31.0281ZM23.7244 29.0323C23.1286 29.4632 22.4012 29.6358 21.6752 29.5196C18.9351 29.0795 16.178 29.3091 14.4025 29.5651C15.7859 27.46 18.5431 24.0263 21.8116 24.0263C22.0542 24.0263 22.3001 24.0453 22.5479 24.085C23.5575 24.2472 24.3508 24.9429 24.6876 25.8376C23.7164 25.7165 22.7449 25.6881 21.7926 25.7556C21.3106 25.7897 20.9475 26.2081 20.9816 26.69C21.0158 27.1721 21.4338 27.5373 21.9161 27.501C22.8436 27.4355 23.7933 27.4733 24.7422 27.6107C24.5682 28.181 24.2158 28.6769 23.7244 29.0323ZM41.1471 29.9668C39.9166 30.1645 38.6818 29.8709 37.6716 29.1403C36.6932 28.4328 36.0398 27.3967 35.8198 26.2139C35.8782 26.2039 35.9357 26.1933 35.9949 26.1838C38.1337 25.8403 40.268 25.8269 42.3382 26.1436C42.815 26.2167 43.2623 25.8888 43.3353 25.4111C43.4084 24.9334 43.0805 24.487 42.6028 24.414C40.3887 24.0751 38.1105 24.0842 35.8293 24.4394C35.9589 23.7919 36.2263 23.1739 36.6249 22.6228C37.3555 21.6125 38.4359 20.9473 39.6669 20.7496C45.8988 19.7496 51.0819 26.883 53.124 30.1933C50.5705 29.7625 45.8412 29.2129 41.1471 29.9668Z" fill="#065F46"/>
<path d="M48.0635 26.0004C47.1503 25.6019 46.2072 25.2633 45.2602 24.9935C44.7959 24.8615 44.3114 25.1306 44.1792 25.5955C44.0469 26.0602 44.3163 26.5442 44.7811 26.6765C45.6532 26.9248 46.5221 27.2369 47.3639 27.6042C47.4778 27.6538 47.5965 27.6775 47.7133 27.6775C48.0506 27.6775 48.3721 27.4811 48.5157 27.1522C48.7088 26.7094 48.5065 26.1936 48.0635 26.0004Z" fill="#065F46"/>
<path d="M29.3416 38.8989C29.3412 38.8989 29.3409 38.8989 29.3405 38.8989C28.8577 38.8989 28.4662 39.29 28.4656 39.7728L28.4639 41.2202C28.4633 41.7033 28.8546 42.0955 29.3377 42.0962C29.3381 42.0962 29.3384 42.0962 29.3388 42.0962C29.8215 42.0962 30.2131 41.7051 30.2137 41.2223L30.2154 39.7749C30.216 39.2917 29.8248 38.8995 29.3416 38.8989Z" fill="#065F46"/>
</svg>
