<svg width="61" height="61" viewBox="0 0 61 61" fill="none" xmlns="http://www.w3.org/2000/svg">
<circle cx="30.5" cy="30.5" r="30.5" fill="#ECFDF5"/>
<g clip-path="url(#clip0_5_137)">
<path d="M41.8413 35.6943C41.3837 32.2872 38.4575 29.6516 34.9277 29.6516H28.9343C29.0336 29.4236 29.124 29.1901 29.2028 28.951C29.3065 28.6382 29.3586 28.3115 29.3586 27.9799C29.3586 27.7286 29.3287 27.4768 29.2699 27.2278C29.9887 26.7519 30.723 26.1451 31.4158 25.4529C32.4723 24.3958 33.3237 23.2482 33.8124 22.2216C34.5439 20.6847 34.2433 19.9082 33.8628 19.5272C33.4818 19.1467 32.7047 18.8455 31.1679 19.5771C31.0087 19.6525 30.8462 19.7379 30.682 19.8311C30.6737 18.5543 30.2977 17.7307 29.5849 17.4717C28.0663 16.9221 26.2571 19.4334 25.2543 22.1994C24.9781 22.9609 24.7651 23.7357 24.6287 24.4662C21.5277 24.8406 18.993 26.8529 18.0163 29.8068C17.9125 30.1196 17.8604 30.4463 17.8604 30.778C17.8604 32.189 18.7789 33.5035 20.0807 34.0664C19.7584 34.879 19.5953 35.7381 19.5953 36.6283C19.5953 37.6865 19.8322 38.717 20.2853 39.6561H19.0546C17.9659 39.6561 17.0801 40.5418 17.0801 41.6306C17.0801 42.7188 17.9659 43.6045 19.0546 43.6045L34.9278 43.6051C36.7908 43.6051 38.5424 42.8796 39.8613 41.5618C40.2223 41.2002 40.5385 40.8064 40.8075 40.3865C41.0338 40.4553 41.27 40.4925 41.5091 40.4925C42.8386 40.4925 43.9201 39.4109 43.9201 38.082C43.9201 36.8652 43.0138 35.8568 41.8413 35.6943ZM26.297 22.5777C27.3791 19.5932 28.8262 18.3769 29.2061 18.5144C29.3825 18.5782 29.6775 19.1694 29.5344 20.5849C28.997 20.9859 28.4562 21.4551 27.9371 21.9743C27.1462 22.7646 26.475 23.5999 25.977 24.4091C25.9237 24.4058 25.7873 24.4024 25.7717 24.4024C25.8971 23.8107 26.0746 23.1906 26.297 22.5777ZM40.0698 39.4581C39.8058 39.9361 39.473 40.3804 39.0765 40.7775C37.9677 41.8857 36.4946 42.4958 34.9278 42.4958H28.8312V42.4952C28.3542 42.4952 27.966 42.1075 27.966 41.6305C27.966 41.153 28.3542 40.7653 28.8312 40.7653H31.3414C31.6476 40.7653 31.8961 40.5168 31.8961 40.2107V39.2711C31.8961 37.7232 33.1551 36.4641 34.7031 36.4641H35.4363C35.7425 36.4641 35.991 36.2156 35.991 35.9095C35.991 35.6027 35.7425 35.3548 35.4363 35.3548H34.7031C32.5433 35.3548 30.7868 37.1114 30.7868 39.2711V39.6561H28.8312C27.7424 39.6561 26.8567 40.5418 26.8567 41.6306C26.8567 41.9406 26.9287 42.234 27.0569 42.4953H19.0546C18.5776 42.4953 18.1894 42.1076 18.1894 41.6306C18.1894 41.153 18.5776 40.7654 19.0546 40.7654H21.2415C21.348 40.7654 21.4556 40.7348 21.551 40.6705C21.8051 40.4997 21.8722 40.1547 21.7013 39.9007C21.0491 38.9328 20.7046 37.8008 20.7046 36.6283C20.7046 35.6976 20.9159 34.8075 21.333 33.9833C21.4717 33.7104 21.3618 33.3765 21.089 33.2378C21.0463 33.2168 21.0024 33.2018 20.9581 33.1918C20.4007 33.0681 19.9037 32.7415 19.546 32.3071C19.1883 31.8729 18.9697 31.331 18.9697 30.778C18.9697 30.565 19.003 30.3548 19.0695 30.1546C19.5288 28.7664 20.3907 27.5971 21.5621 26.7735C22.7374 25.9483 24.1628 25.5117 25.6853 25.5117C25.7247 25.5117 26.0491 25.5262 26.1728 25.5483C26.4113 25.5905 26.6409 25.4735 26.753 25.2738L26.7535 25.2744C27.2095 24.4657 27.9083 23.5722 28.7214 22.7585C29.2605 22.2194 29.8201 21.7414 30.3681 21.3481C30.3798 21.3403 30.3909 21.3326 30.4014 21.3242C30.8285 21.0197 31.2483 20.7674 31.6449 20.5788C32.4902 20.1767 32.9655 20.1983 33.0781 20.3114C33.1912 20.4246 33.2134 20.8994 32.8107 21.7452C32.3748 22.6603 31.601 23.6986 30.6316 24.6681C29.9105 25.3891 29.1457 26.007 28.4141 26.4591L28.4191 26.4674C28.1978 26.5517 28.0619 26.7625 28.0619 26.986C28.0619 27.0514 28.0735 27.118 28.098 27.1829C28.1983 27.4469 28.2493 27.7148 28.2493 27.9799C28.2493 28.1929 28.2155 28.4031 28.1495 28.6033C27.9954 29.0704 27.7946 29.5146 27.5528 29.925C27.3974 30.189 27.4857 30.529 27.7497 30.6843C27.8378 30.7365 27.9349 30.7609 28.0303 30.7609H34.9278C38.163 30.7609 40.7947 33.3932 40.7947 36.6284C40.7947 38.001 40.0781 39.4403 40.0698 39.4581ZM41.5091 39.3832C41.4542 39.3832 41.3993 39.3793 41.3449 39.3727C41.6843 38.5795 41.8741 37.7243 41.9006 36.8402C42.4275 37.0071 42.8108 37.5002 42.8108 38.082C42.8108 38.7997 42.2267 39.3832 41.5091 39.3832Z" fill="#065F46"/>
<path d="M22.4437 29.4684C22.8149 29.4684 23.1159 29.1675 23.1159 28.7962C23.1159 28.425 22.8149 28.124 22.4437 28.124C22.0724 28.124 21.7715 28.425 21.7715 28.7962C21.7715 29.1675 22.0724 29.4684 22.4437 29.4684Z" fill="#065F46"/>
<path d="M34.9277 31.5928C34.6214 31.5928 34.373 31.8411 34.373 32.1474C34.373 32.4536 34.6214 32.702 34.9277 32.702C37.0925 32.702 38.8538 34.4633 38.8538 36.6281C38.8538 36.9344 39.1022 37.1827 39.4084 37.1827C39.7147 37.1827 39.9631 36.9344 39.9631 36.6281C39.9631 33.8516 37.7042 31.5928 34.9277 31.5928Z" fill="#065F46"/>
</g>
<defs>
<clipPath id="clip0_5_137">
<rect width="26.84" height="26.84" fill="white" transform="translate(17.0801 17.0801)"/>
</clipPath>
</defs>
</svg>
